<mxfile host="app.diagrams.net" modified="2023-04-26T16:03:28.517Z" agent="Mozilla/5.0 (Windows NT 10.0; Win64; x64) AppleWebKit/537.36 (KHTML, like Gecko) Chrome/112.0.0.0 Safari/537.36" etag="6YBND2043mpQdfiC3rYV" version="21.2.1" type="device">
  <diagram name="Page-1" id="tOUgjpYxG2yLGa_EfxfI">
    <mxGraphModel dx="3337" dy="985" grid="0" gridSize="10" guides="1" tooltips="1" connect="1" arrows="1" fold="1" page="1" pageScale="1" pageWidth="827" pageHeight="1169" math="0" shadow="0">
      <root>
        <mxCell id="0" />
        <mxCell id="1" parent="0" />
        <mxCell id="u0vfC-JlX7i4nL_JvI1X-105" style="edgeStyle=orthogonalEdgeStyle;rounded=0;orthogonalLoop=1;jettySize=auto;html=1;exitX=0;exitY=0;exitDx=0;exitDy=0;entryX=0.5;entryY=1;entryDx=0;entryDy=0;" parent="1" source="u0vfC-JlX7i4nL_JvI1X-1" target="u0vfC-JlX7i4nL_JvI1X-70" edge="1">
          <mxGeometry relative="1" as="geometry" />
        </mxCell>
        <mxCell id="u0vfC-JlX7i4nL_JvI1X-107" style="edgeStyle=orthogonalEdgeStyle;rounded=0;orthogonalLoop=1;jettySize=auto;html=1;exitX=0.25;exitY=0;exitDx=0;exitDy=0;entryX=0.75;entryY=1;entryDx=0;entryDy=0;" parent="1" source="u0vfC-JlX7i4nL_JvI1X-1" target="u0vfC-JlX7i4nL_JvI1X-66" edge="1">
          <mxGeometry relative="1" as="geometry" />
        </mxCell>
        <mxCell id="u0vfC-JlX7i4nL_JvI1X-108" style="edgeStyle=orthogonalEdgeStyle;rounded=0;orthogonalLoop=1;jettySize=auto;html=1;exitX=0.5;exitY=0;exitDx=0;exitDy=0;entryX=0.75;entryY=1;entryDx=0;entryDy=0;" parent="1" source="u0vfC-JlX7i4nL_JvI1X-1" target="u0vfC-JlX7i4nL_JvI1X-74" edge="1">
          <mxGeometry relative="1" as="geometry" />
        </mxCell>
        <mxCell id="u0vfC-JlX7i4nL_JvI1X-109" style="edgeStyle=orthogonalEdgeStyle;rounded=0;orthogonalLoop=1;jettySize=auto;html=1;exitX=0.75;exitY=0;exitDx=0;exitDy=0;entryX=0.5;entryY=1;entryDx=0;entryDy=0;" parent="1" source="u0vfC-JlX7i4nL_JvI1X-1" target="u0vfC-JlX7i4nL_JvI1X-78" edge="1">
          <mxGeometry relative="1" as="geometry" />
        </mxCell>
        <mxCell id="u0vfC-JlX7i4nL_JvI1X-1" value="VueControleurPotager" style="swimlane;fontStyle=1;align=center;verticalAlign=top;childLayout=stackLayout;horizontal=1;startSize=26;horizontalStack=0;resizeParent=1;resizeParentMax=0;resizeLast=0;collapsible=1;marginBottom=0;whiteSpace=wrap;html=1;" parent="1" vertex="1">
          <mxGeometry x="-337" y="212" width="278" height="275" as="geometry" />
        </mxCell>
        <mxCell id="u0vfC-JlX7i4nL_JvI1X-2" value="- simulateurPotager : SimulateurPotager&lt;br&gt;- cultivables : Afficheables&lt;br&gt;- fenetre_chrono : FenetreChrono&lt;br&gt;- fenetre_profil : FenetreProfil&lt;br&gt;- fenetre_infos : FenetreInfos&lt;br&gt;- fenetre_action : FenetreAction&lt;br&gt;- fenetre_inventaire : FenetreInventaire&lt;br&gt;- fenetre_restart : FenetreRestart&lt;br&gt;" style="text;strokeColor=none;fillColor=none;align=left;verticalAlign=top;spacingLeft=4;spacingRight=4;overflow=hidden;rotatable=0;points=[[0,0.5],[1,0.5]];portConstraint=eastwest;whiteSpace=wrap;html=1;" parent="u0vfC-JlX7i4nL_JvI1X-1" vertex="1">
          <mxGeometry y="26" width="278" height="143" as="geometry" />
        </mxCell>
        <mxCell id="u0vfC-JlX7i4nL_JvI1X-3" value="" style="line;strokeWidth=1;fillColor=none;align=left;verticalAlign=middle;spacingTop=-1;spacingLeft=3;spacingRight=3;rotatable=0;labelPosition=right;points=[];portConstraint=eastwest;strokeColor=inherit;" parent="u0vfC-JlX7i4nL_JvI1X-1" vertex="1">
          <mxGeometry y="169" width="278" height="8" as="geometry" />
        </mxCell>
        <mxCell id="u0vfC-JlX7i4nL_JvI1X-4" value="+ VueControleurPotager(_simulateurPotager :&amp;nbsp; &amp;nbsp; &amp;nbsp; &amp;nbsp;SimulateurPotager) : constructeur&lt;br&gt;+ placerLesComposantsGraphiques() : void&lt;br&gt;+ mettreAjourAffichage() : void&lt;br&gt;+ update(o:Observable,arg:Object) : void&lt;br&gt;+ gestion_fenetres_evenements() : void" style="text;strokeColor=none;fillColor=none;align=left;verticalAlign=top;spacingLeft=4;spacingRight=4;overflow=hidden;rotatable=0;points=[[0,0.5],[1,0.5]];portConstraint=eastwest;whiteSpace=wrap;html=1;" parent="u0vfC-JlX7i4nL_JvI1X-1" vertex="1">
          <mxGeometry y="177" width="278" height="98" as="geometry" />
        </mxCell>
        <mxCell id="u0vfC-JlX7i4nL_JvI1X-5" value="abstract Fruit" style="swimlane;fontStyle=1;align=center;verticalAlign=top;childLayout=stackLayout;horizontal=1;startSize=26;horizontalStack=0;resizeParent=1;resizeParentMax=0;resizeLast=0;collapsible=1;marginBottom=0;whiteSpace=wrap;html=1;" parent="1" vertex="1">
          <mxGeometry x="104" y="139" width="160" height="34" as="geometry" />
        </mxCell>
        <mxCell id="u0vfC-JlX7i4nL_JvI1X-7" value="" style="line;strokeWidth=1;fillColor=none;align=left;verticalAlign=middle;spacingTop=-1;spacingLeft=3;spacingRight=3;rotatable=0;labelPosition=right;points=[];portConstraint=eastwest;strokeColor=inherit;" parent="u0vfC-JlX7i4nL_JvI1X-5" vertex="1">
          <mxGeometry y="26" width="160" height="8" as="geometry" />
        </mxCell>
        <mxCell id="u0vfC-JlX7i4nL_JvI1X-9" value="Varietes" style="swimlane;fontStyle=1;align=center;verticalAlign=top;childLayout=stackLayout;horizontal=1;startSize=26;horizontalStack=0;resizeParent=1;resizeParentMax=0;resizeLast=0;collapsible=1;marginBottom=0;whiteSpace=wrap;html=1;" parent="1" vertex="1">
          <mxGeometry x="223" y="38" width="112" height="60" as="geometry" />
        </mxCell>
        <mxCell id="u0vfC-JlX7i4nL_JvI1X-11" value="" style="line;strokeWidth=1;fillColor=none;align=left;verticalAlign=middle;spacingTop=-1;spacingLeft=3;spacingRight=3;rotatable=0;labelPosition=right;points=[];portConstraint=eastwest;strokeColor=inherit;" parent="u0vfC-JlX7i4nL_JvI1X-9" vertex="1">
          <mxGeometry y="26" width="112" height="8" as="geometry" />
        </mxCell>
        <mxCell id="u0vfC-JlX7i4nL_JvI1X-12" value="+ Varietes : enum&amp;nbsp;" style="text;strokeColor=none;fillColor=none;align=left;verticalAlign=top;spacingLeft=4;spacingRight=4;overflow=hidden;rotatable=0;points=[[0,0.5],[1,0.5]];portConstraint=eastwest;whiteSpace=wrap;html=1;" parent="u0vfC-JlX7i4nL_JvI1X-9" vertex="1">
          <mxGeometry y="34" width="112" height="26" as="geometry" />
        </mxCell>
        <mxCell id="u0vfC-JlX7i4nL_JvI1X-13" value="Affichables" style="swimlane;fontStyle=1;align=center;verticalAlign=top;childLayout=stackLayout;horizontal=1;startSize=26;horizontalStack=0;resizeParent=1;resizeParentMax=0;resizeLast=0;collapsible=1;marginBottom=0;whiteSpace=wrap;html=1;" parent="1" vertex="1">
          <mxGeometry x="-720" y="230" width="224" height="120" as="geometry" />
        </mxCell>
        <mxCell id="u0vfC-JlX7i4nL_JvI1X-14" value="- icoAnanas : ImageIcon&lt;br&gt;- icoRadis : ImageIcon&amp;nbsp;&lt;br&gt;....&lt;br&gt;" style="text;strokeColor=none;fillColor=none;align=left;verticalAlign=top;spacingLeft=4;spacingRight=4;overflow=hidden;rotatable=0;points=[[0,0.5],[1,0.5]];portConstraint=eastwest;whiteSpace=wrap;html=1;" parent="u0vfC-JlX7i4nL_JvI1X-13" vertex="1">
          <mxGeometry y="26" width="224" height="47" as="geometry" />
        </mxCell>
        <mxCell id="u0vfC-JlX7i4nL_JvI1X-15" value="" style="line;strokeWidth=1;fillColor=none;align=left;verticalAlign=middle;spacingTop=-1;spacingLeft=3;spacingRight=3;rotatable=0;labelPosition=right;points=[];portConstraint=eastwest;strokeColor=inherit;" parent="u0vfC-JlX7i4nL_JvI1X-13" vertex="1">
          <mxGeometry y="73" width="224" height="8" as="geometry" />
        </mxCell>
        <mxCell id="u0vfC-JlX7i4nL_JvI1X-16" value="+&amp;nbsp;construction_images_icons( ) : void&lt;br&gt;+ getIcoAnanas -&amp;gt; ImageIcon" style="text;strokeColor=none;fillColor=none;align=left;verticalAlign=top;spacingLeft=4;spacingRight=4;overflow=hidden;rotatable=0;points=[[0,0.5],[1,0.5]];portConstraint=eastwest;whiteSpace=wrap;html=1;" parent="u0vfC-JlX7i4nL_JvI1X-13" vertex="1">
          <mxGeometry y="81" width="224" height="39" as="geometry" />
        </mxCell>
        <mxCell id="u0vfC-JlX7i4nL_JvI1X-17" value="abstract Legume" style="swimlane;fontStyle=1;align=center;verticalAlign=top;childLayout=stackLayout;horizontal=1;startSize=26;horizontalStack=0;resizeParent=1;resizeParentMax=0;resizeLast=0;collapsible=1;marginBottom=0;whiteSpace=wrap;html=1;" parent="1" vertex="1">
          <mxGeometry x="281" y="139" width="160" height="34" as="geometry" />
        </mxCell>
        <mxCell id="u0vfC-JlX7i4nL_JvI1X-19" value="" style="line;strokeWidth=1;fillColor=none;align=left;verticalAlign=middle;spacingTop=-1;spacingLeft=3;spacingRight=3;rotatable=0;labelPosition=right;points=[];portConstraint=eastwest;strokeColor=inherit;" parent="u0vfC-JlX7i4nL_JvI1X-17" vertex="1">
          <mxGeometry y="26" width="160" height="8" as="geometry" />
        </mxCell>
        <mxCell id="u0vfC-JlX7i4nL_JvI1X-25" value="SimulateurMeteo" style="swimlane;fontStyle=1;align=center;verticalAlign=top;childLayout=stackLayout;horizontal=1;startSize=26;horizontalStack=0;resizeParent=1;resizeParentMax=0;resizeLast=0;collapsible=1;marginBottom=0;whiteSpace=wrap;html=1;" parent="1" vertex="1">
          <mxGeometry x="-129" y="605" width="279" height="138" as="geometry" />
        </mxCell>
        <mxCell id="u0vfC-JlX7i4nL_JvI1X-26" value="- simPot : SimulateurPotager" style="text;strokeColor=none;fillColor=none;align=left;verticalAlign=top;spacingLeft=4;spacingRight=4;overflow=hidden;rotatable=0;points=[[0,0.5],[1,0.5]];portConstraint=eastwest;whiteSpace=wrap;html=1;" parent="u0vfC-JlX7i4nL_JvI1X-25" vertex="1">
          <mxGeometry y="26" width="279" height="20" as="geometry" />
        </mxCell>
        <mxCell id="u0vfC-JlX7i4nL_JvI1X-97" value="- grilleCases_meteo : Case [ ][ ]" style="text;strokeColor=none;fillColor=none;align=left;verticalAlign=top;spacingLeft=4;spacingRight=4;overflow=hidden;rotatable=0;points=[[0,0.5],[1,0.5]];portConstraint=eastwest;whiteSpace=wrap;html=1;" parent="u0vfC-JlX7i4nL_JvI1X-25" vertex="1">
          <mxGeometry y="46" width="279" height="18" as="geometry" />
        </mxCell>
        <mxCell id="u0vfC-JlX7i4nL_JvI1X-98" value="- Temps : Chrono" style="text;strokeColor=none;fillColor=none;align=left;verticalAlign=top;spacingLeft=4;spacingRight=4;overflow=hidden;rotatable=0;points=[[0,0.5],[1,0.5]];portConstraint=eastwest;whiteSpace=wrap;html=1;" parent="u0vfC-JlX7i4nL_JvI1X-25" vertex="1">
          <mxGeometry y="64" width="279" height="19" as="geometry" />
        </mxCell>
        <mxCell id="u0vfC-JlX7i4nL_JvI1X-27" value="" style="line;strokeWidth=1;fillColor=none;align=left;verticalAlign=middle;spacingTop=-1;spacingLeft=3;spacingRight=3;rotatable=0;labelPosition=right;points=[];portConstraint=eastwest;strokeColor=inherit;" parent="u0vfC-JlX7i4nL_JvI1X-25" vertex="1">
          <mxGeometry y="83" width="279" height="8" as="geometry" />
        </mxCell>
        <mxCell id="u0vfC-JlX7i4nL_JvI1X-104" value="+&amp;nbsp;SimulateurMeteo(_simpot : SimulateurPotager)" style="text;strokeColor=none;fillColor=none;align=left;verticalAlign=top;spacingLeft=4;spacingRight=4;overflow=hidden;rotatable=0;points=[[0,0.5],[1,0.5]];portConstraint=eastwest;whiteSpace=wrap;html=1;" parent="u0vfC-JlX7i4nL_JvI1X-25" vertex="1">
          <mxGeometry y="91" width="279" height="19" as="geometry" />
        </mxCell>
        <mxCell id="u0vfC-JlX7i4nL_JvI1X-28" value="+ run () : void" style="text;strokeColor=none;fillColor=none;align=left;verticalAlign=top;spacingLeft=4;spacingRight=4;overflow=hidden;rotatable=0;points=[[0,0.5],[1,0.5]];portConstraint=eastwest;whiteSpace=wrap;html=1;" parent="u0vfC-JlX7i4nL_JvI1X-25" vertex="1">
          <mxGeometry y="110" width="279" height="28" as="geometry" />
        </mxCell>
        <mxCell id="u0vfC-JlX7i4nL_JvI1X-29" value="SimulateurPotager" style="swimlane;fontStyle=1;align=center;verticalAlign=top;childLayout=stackLayout;horizontal=1;startSize=25;horizontalStack=0;resizeParent=1;resizeParentMax=0;resizeLast=0;collapsible=1;marginBottom=0;whiteSpace=wrap;html=1;" parent="1" vertex="1">
          <mxGeometry x="-498" y="605" width="316" height="369" as="geometry" />
        </mxCell>
        <mxCell id="u0vfC-JlX7i4nL_JvI1X-30" value="+ SIZE_X : int&lt;br&gt;" style="text;strokeColor=none;fillColor=none;align=left;verticalAlign=top;spacingLeft=4;spacingRight=4;overflow=hidden;rotatable=0;points=[[0,0.5],[1,0.5]];portConstraint=eastwest;whiteSpace=wrap;html=1;" parent="u0vfC-JlX7i4nL_JvI1X-29" vertex="1">
          <mxGeometry y="25" width="316" height="20" as="geometry" />
        </mxCell>
        <mxCell id="u0vfC-JlX7i4nL_JvI1X-82" value="+ SIZE_Y : int" style="text;strokeColor=none;fillColor=none;align=left;verticalAlign=top;spacingLeft=4;spacingRight=4;overflow=hidden;rotatable=0;points=[[0,0.5],[1,0.5]];portConstraint=eastwest;whiteSpace=wrap;html=1;" parent="u0vfC-JlX7i4nL_JvI1X-29" vertex="1">
          <mxGeometry y="45" width="316" height="20" as="geometry" />
        </mxCell>
        <mxCell id="u0vfC-JlX7i4nL_JvI1X-89" value="- grilleCases[ ][ ] : Case[ SIZE_X][SIZE_Y]" style="text;strokeColor=none;fillColor=none;align=left;verticalAlign=top;spacingLeft=4;spacingRight=4;overflow=hidden;rotatable=0;points=[[0,0.5],[1,0.5]];portConstraint=eastwest;whiteSpace=wrap;html=1;" parent="u0vfC-JlX7i4nL_JvI1X-29" vertex="1">
          <mxGeometry y="65" width="316" height="24" as="geometry" />
        </mxCell>
        <mxCell id="u0vfC-JlX7i4nL_JvI1X-83" value="- current_graine_legume : Legume" style="text;strokeColor=none;fillColor=none;align=left;verticalAlign=top;spacingLeft=4;spacingRight=4;overflow=hidden;rotatable=0;points=[[0,0.5],[1,0.5]];portConstraint=eastwest;whiteSpace=wrap;html=1;" parent="u0vfC-JlX7i4nL_JvI1X-29" vertex="1">
          <mxGeometry y="89" width="316" height="24" as="geometry" />
        </mxCell>
        <mxCell id="u0vfC-JlX7i4nL_JvI1X-84" value="- current_graine_legume : Fruit" style="text;strokeColor=none;fillColor=none;align=left;verticalAlign=top;spacingLeft=4;spacingRight=4;overflow=hidden;rotatable=0;points=[[0,0.5],[1,0.5]];portConstraint=eastwest;whiteSpace=wrap;html=1;" parent="u0vfC-JlX7i4nL_JvI1X-29" vertex="1">
          <mxGeometry y="113" width="316" height="20" as="geometry" />
        </mxCell>
        <mxCell id="u0vfC-JlX7i4nL_JvI1X-85" value="- fenetreInfos : FenetreInfos" style="text;strokeColor=none;fillColor=none;align=left;verticalAlign=top;spacingLeft=4;spacingRight=4;overflow=hidden;rotatable=0;points=[[0,0.5],[1,0.5]];portConstraint=eastwest;whiteSpace=wrap;html=1;" parent="u0vfC-JlX7i4nL_JvI1X-29" vertex="1">
          <mxGeometry y="133" width="316" height="20" as="geometry" />
        </mxCell>
        <mxCell id="u0vfC-JlX7i4nL_JvI1X-86" value="- fenetreIventaire : FenetreInventaire" style="text;strokeColor=none;fillColor=none;align=left;verticalAlign=top;spacingLeft=4;spacingRight=4;overflow=hidden;rotatable=0;points=[[0,0.5],[1,0.5]];portConstraint=eastwest;whiteSpace=wrap;html=1;" parent="u0vfC-JlX7i4nL_JvI1X-29" vertex="1">
          <mxGeometry y="153" width="316" height="20" as="geometry" />
        </mxCell>
        <mxCell id="u0vfC-JlX7i4nL_JvI1X-87" value="..." style="text;strokeColor=none;fillColor=none;align=left;verticalAlign=top;spacingLeft=4;spacingRight=4;overflow=hidden;rotatable=0;points=[[0,0.5],[1,0.5]];portConstraint=eastwest;whiteSpace=wrap;html=1;" parent="u0vfC-JlX7i4nL_JvI1X-29" vertex="1">
          <mxGeometry y="173" width="316" height="20" as="geometry" />
        </mxCell>
        <mxCell id="u0vfC-JlX7i4nL_JvI1X-88" value="- game_over : boolean" style="text;strokeColor=none;fillColor=none;align=left;verticalAlign=top;spacingLeft=4;spacingRight=4;overflow=hidden;rotatable=0;points=[[0,0.5],[1,0.5]];portConstraint=eastwest;whiteSpace=wrap;html=1;" parent="u0vfC-JlX7i4nL_JvI1X-29" vertex="1">
          <mxGeometry y="193" width="316" height="20" as="geometry" />
        </mxCell>
        <mxCell id="u0vfC-JlX7i4nL_JvI1X-31" value="" style="line;strokeWidth=1;fillColor=none;align=left;verticalAlign=middle;spacingTop=-1;spacingLeft=3;spacingRight=3;rotatable=0;labelPosition=right;points=[];portConstraint=eastwest;strokeColor=inherit;" parent="u0vfC-JlX7i4nL_JvI1X-29" vertex="1">
          <mxGeometry y="213" width="316" height="26" as="geometry" />
        </mxCell>
        <mxCell id="u0vfC-JlX7i4nL_JvI1X-32" value="+ SimulateurPotager() : constructeur" style="text;strokeColor=none;fillColor=none;align=left;verticalAlign=top;spacingLeft=4;spacingRight=4;overflow=hidden;rotatable=0;points=[[0,0.5],[1,0.5]];portConstraint=eastwest;whiteSpace=wrap;html=1;" parent="u0vfC-JlX7i4nL_JvI1X-29" vertex="1">
          <mxGeometry y="239" width="316" height="26" as="geometry" />
        </mxCell>
        <mxCell id="u0vfC-JlX7i4nL_JvI1X-90" value="- initialisationDesEntites() : void" style="text;strokeColor=none;fillColor=none;align=left;verticalAlign=top;spacingLeft=4;spacingRight=4;overflow=hidden;rotatable=0;points=[[0,0.5],[1,0.5]];portConstraint=eastwest;whiteSpace=wrap;html=1;" parent="u0vfC-JlX7i4nL_JvI1X-29" vertex="1">
          <mxGeometry y="265" width="316" height="26" as="geometry" />
        </mxCell>
        <mxCell id="u0vfC-JlX7i4nL_JvI1X-91" value="+ gestion_bourse(L:Legume,F:Fruit ,action:String) : void" style="text;strokeColor=none;fillColor=none;align=left;verticalAlign=top;spacingLeft=4;spacingRight=4;overflow=hidden;rotatable=0;points=[[0,0.5],[1,0.5]];portConstraint=eastwest;whiteSpace=wrap;html=1;" parent="u0vfC-JlX7i4nL_JvI1X-29" vertex="1">
          <mxGeometry y="291" width="316" height="26" as="geometry" />
        </mxCell>
        <mxCell id="u0vfC-JlX7i4nL_JvI1X-92" value="+ actionUtilisateur(x;int , y:int ) : void" style="text;strokeColor=none;fillColor=none;align=left;verticalAlign=top;spacingLeft=4;spacingRight=4;overflow=hidden;rotatable=0;points=[[0,0.5],[1,0.5]];portConstraint=eastwest;whiteSpace=wrap;html=1;" parent="u0vfC-JlX7i4nL_JvI1X-29" vertex="1">
          <mxGeometry y="317" width="316" height="26" as="geometry" />
        </mxCell>
        <mxCell id="u0vfC-JlX7i4nL_JvI1X-93" value="+ reinitialisation() : void" style="text;strokeColor=none;fillColor=none;align=left;verticalAlign=top;spacingLeft=4;spacingRight=4;overflow=hidden;rotatable=0;points=[[0,0.5],[1,0.5]];portConstraint=eastwest;whiteSpace=wrap;html=1;" parent="u0vfC-JlX7i4nL_JvI1X-29" vertex="1">
          <mxGeometry y="343" width="316" height="26" as="geometry" />
        </mxCell>
        <mxCell id="u0vfC-JlX7i4nL_JvI1X-35" value="Ordonnanceur" style="swimlane;fontStyle=1;align=center;verticalAlign=top;childLayout=stackLayout;horizontal=1;startSize=26;horizontalStack=0;resizeParent=1;resizeParentMax=0;resizeLast=0;collapsible=1;marginBottom=0;whiteSpace=wrap;html=1;" parent="1" vertex="1">
          <mxGeometry x="-772" y="781" width="160" height="149" as="geometry" />
        </mxCell>
        <mxCell id="u0vfC-JlX7i4nL_JvI1X-38" value="+ method(type): type" style="text;strokeColor=none;fillColor=none;align=left;verticalAlign=top;spacingLeft=4;spacingRight=4;overflow=hidden;rotatable=0;points=[[0,0.5],[1,0.5]];portConstraint=eastwest;whiteSpace=wrap;html=1;" parent="u0vfC-JlX7i4nL_JvI1X-35" vertex="1">
          <mxGeometry y="26" width="160" height="26" as="geometry" />
        </mxCell>
        <mxCell id="u0vfC-JlX7i4nL_JvI1X-36" value="+ field: type" style="text;strokeColor=none;fillColor=none;align=left;verticalAlign=top;spacingLeft=4;spacingRight=4;overflow=hidden;rotatable=0;points=[[0,0.5],[1,0.5]];portConstraint=eastwest;whiteSpace=wrap;html=1;" parent="u0vfC-JlX7i4nL_JvI1X-35" vertex="1">
          <mxGeometry y="52" width="160" height="20" as="geometry" />
        </mxCell>
        <mxCell id="u0vfC-JlX7i4nL_JvI1X-37" value="" style="line;strokeWidth=1;fillColor=none;align=left;verticalAlign=middle;spacingTop=-1;spacingLeft=3;spacingRight=3;rotatable=0;labelPosition=right;points=[];portConstraint=eastwest;strokeColor=inherit;" parent="u0vfC-JlX7i4nL_JvI1X-35" vertex="1">
          <mxGeometry y="72" width="160" height="77" as="geometry" />
        </mxCell>
        <mxCell id="u0vfC-JlX7i4nL_JvI1X-39" value="abstract Case" style="swimlane;fontStyle=1;align=center;verticalAlign=top;childLayout=stackLayout;horizontal=1;startSize=26;horizontalStack=0;resizeParent=1;resizeParentMax=0;resizeLast=0;collapsible=1;marginBottom=0;whiteSpace=wrap;html=1;" parent="1" vertex="1">
          <mxGeometry x="199" y="304" width="171" height="102" as="geometry" />
        </mxCell>
        <mxCell id="u0vfC-JlX7i4nL_JvI1X-42" value="" style="line;strokeWidth=1;fillColor=none;align=left;verticalAlign=middle;spacingTop=-1;spacingLeft=3;spacingRight=3;rotatable=0;labelPosition=right;points=[];portConstraint=eastwest;strokeColor=inherit;" parent="u0vfC-JlX7i4nL_JvI1X-39" vertex="1">
          <mxGeometry y="26" width="171" height="24" as="geometry" />
        </mxCell>
        <mxCell id="IXkaGDdoHZNGZaUg_SKj-31" value="+ abstract getFruit:Fruit" style="text;html=1;align=center;verticalAlign=middle;resizable=0;points=[];autosize=1;strokeColor=none;fillColor=none;" vertex="1" parent="u0vfC-JlX7i4nL_JvI1X-39">
          <mxGeometry y="50" width="171" height="26" as="geometry" />
        </mxCell>
        <mxCell id="IXkaGDdoHZNGZaUg_SKj-32" value="+ abstract getLegume:Legume" style="text;html=1;align=center;verticalAlign=middle;resizable=0;points=[];autosize=1;strokeColor=none;fillColor=none;" vertex="1" parent="u0vfC-JlX7i4nL_JvI1X-39">
          <mxGeometry y="76" width="171" height="26" as="geometry" />
        </mxCell>
        <mxCell id="u0vfC-JlX7i4nL_JvI1X-43" value="CaseCultivable" style="swimlane;fontStyle=1;align=center;verticalAlign=top;childLayout=stackLayout;horizontal=1;startSize=26;horizontalStack=0;resizeParent=1;resizeParentMax=0;resizeLast=0;collapsible=1;marginBottom=0;whiteSpace=wrap;html=1;" parent="1" vertex="1">
          <mxGeometry x="110" y="467" width="160" height="73" as="geometry" />
        </mxCell>
        <mxCell id="u0vfC-JlX7i4nL_JvI1X-46" value="" style="line;strokeWidth=1;fillColor=none;align=left;verticalAlign=middle;spacingTop=-1;spacingLeft=3;spacingRight=3;rotatable=0;labelPosition=right;points=[];portConstraint=eastwest;strokeColor=inherit;" parent="u0vfC-JlX7i4nL_JvI1X-43" vertex="1">
          <mxGeometry y="26" width="160" height="25" as="geometry" />
        </mxCell>
        <mxCell id="IXkaGDdoHZNGZaUg_SKj-35" value="+ run( ) : void" style="text;strokeColor=none;fillColor=none;align=left;verticalAlign=top;spacingLeft=4;spacingRight=4;overflow=hidden;rotatable=0;points=[[0,0.5],[1,0.5]];portConstraint=eastwest;whiteSpace=wrap;html=1;" vertex="1" parent="u0vfC-JlX7i4nL_JvI1X-43">
          <mxGeometry y="51" width="160" height="22" as="geometry" />
        </mxCell>
        <mxCell id="u0vfC-JlX7i4nL_JvI1X-47" value="CaseNonCultivable" style="swimlane;fontStyle=1;align=center;verticalAlign=top;childLayout=stackLayout;horizontal=1;startSize=26;horizontalStack=0;resizeParent=1;resizeParentMax=0;resizeLast=0;collapsible=1;marginBottom=0;whiteSpace=wrap;html=1;" parent="1" vertex="1">
          <mxGeometry x="288" y="465" width="160" height="75" as="geometry" />
        </mxCell>
        <mxCell id="u0vfC-JlX7i4nL_JvI1X-50" value="" style="line;strokeWidth=1;fillColor=none;align=left;verticalAlign=middle;spacingTop=-1;spacingLeft=3;spacingRight=3;rotatable=0;labelPosition=right;points=[];portConstraint=eastwest;strokeColor=inherit;" parent="u0vfC-JlX7i4nL_JvI1X-47" vertex="1">
          <mxGeometry y="26" width="160" height="20" as="geometry" />
        </mxCell>
        <mxCell id="IXkaGDdoHZNGZaUg_SKj-37" value="+ run( ) : void" style="text;strokeColor=none;fillColor=none;align=left;verticalAlign=top;spacingLeft=4;spacingRight=4;overflow=hidden;rotatable=0;points=[[0,0.5],[1,0.5]];portConstraint=eastwest;whiteSpace=wrap;html=1;" vertex="1" parent="u0vfC-JlX7i4nL_JvI1X-47">
          <mxGeometry y="46" width="160" height="29" as="geometry" />
        </mxCell>
        <mxCell id="u0vfC-JlX7i4nL_JvI1X-51" value="Ananas" style="swimlane;fontStyle=1;align=center;verticalAlign=top;childLayout=stackLayout;horizontal=1;startSize=26;horizontalStack=0;resizeParent=1;resizeParentMax=0;resizeLast=0;collapsible=1;marginBottom=0;whiteSpace=wrap;html=1;" parent="1" vertex="1">
          <mxGeometry x="19" y="211" width="160" height="34" as="geometry" />
        </mxCell>
        <mxCell id="u0vfC-JlX7i4nL_JvI1X-53" value="" style="line;strokeWidth=1;fillColor=none;align=left;verticalAlign=middle;spacingTop=-1;spacingLeft=3;spacingRight=3;rotatable=0;labelPosition=right;points=[];portConstraint=eastwest;strokeColor=inherit;" parent="u0vfC-JlX7i4nL_JvI1X-51" vertex="1">
          <mxGeometry y="26" width="160" height="8" as="geometry" />
        </mxCell>
        <mxCell id="u0vfC-JlX7i4nL_JvI1X-55" value="Radis" style="swimlane;fontStyle=1;align=center;verticalAlign=top;childLayout=stackLayout;horizontal=1;startSize=26;horizontalStack=0;resizeParent=1;resizeParentMax=0;resizeLast=0;collapsible=1;marginBottom=0;whiteSpace=wrap;html=1;" parent="1" vertex="1">
          <mxGeometry x="451" y="211" width="160" height="34" as="geometry" />
        </mxCell>
        <mxCell id="u0vfC-JlX7i4nL_JvI1X-57" value="" style="line;strokeWidth=1;fillColor=none;align=left;verticalAlign=middle;spacingTop=-1;spacingLeft=3;spacingRight=3;rotatable=0;labelPosition=right;points=[];portConstraint=eastwest;strokeColor=inherit;" parent="u0vfC-JlX7i4nL_JvI1X-55" vertex="1">
          <mxGeometry y="26" width="160" height="8" as="geometry" />
        </mxCell>
        <mxCell id="u0vfC-JlX7i4nL_JvI1X-59" value="BoutonRond" style="swimlane;fontStyle=1;align=center;verticalAlign=top;childLayout=stackLayout;horizontal=1;startSize=26;horizontalStack=0;resizeParent=1;resizeParentMax=0;resizeLast=0;collapsible=1;marginBottom=0;whiteSpace=wrap;html=1;" parent="1" vertex="1">
          <mxGeometry x="-720" y="400" width="268" height="124" as="geometry" />
        </mxCell>
        <mxCell id="u0vfC-JlX7i4nL_JvI1X-60" value="- couleur : Color" style="text;strokeColor=none;fillColor=none;align=left;verticalAlign=top;spacingLeft=4;spacingRight=4;overflow=hidden;rotatable=0;points=[[0,0.5],[1,0.5]];portConstraint=eastwest;whiteSpace=wrap;html=1;" parent="u0vfC-JlX7i4nL_JvI1X-59" vertex="1">
          <mxGeometry y="26" width="268" height="26" as="geometry" />
        </mxCell>
        <mxCell id="u0vfC-JlX7i4nL_JvI1X-62" value="" style="line;strokeWidth=1;fillColor=none;align=left;verticalAlign=middle;spacingTop=-1;spacingLeft=3;spacingRight=3;rotatable=0;labelPosition=right;points=[];portConstraint=eastwest;strokeColor=inherit;" parent="u0vfC-JlX7i4nL_JvI1X-59" vertex="1">
          <mxGeometry y="52" width="268" height="12" as="geometry" />
        </mxCell>
        <mxCell id="u0vfC-JlX7i4nL_JvI1X-64" value="+ BoutonRond(couleur : Color) : constructeur&lt;br&gt;- protected paintComponent (g:Graphics) : void&lt;br&gt;- protected paintBorder (g:Graphics) : void" style="text;strokeColor=none;fillColor=none;align=left;verticalAlign=top;spacingLeft=4;spacingRight=4;overflow=hidden;rotatable=0;points=[[0,0.5],[1,0.5]];portConstraint=eastwest;whiteSpace=wrap;html=1;" parent="u0vfC-JlX7i4nL_JvI1X-59" vertex="1">
          <mxGeometry y="64" width="268" height="60" as="geometry" />
        </mxCell>
        <mxCell id="u0vfC-JlX7i4nL_JvI1X-66" value="FenetreAction" style="swimlane;fontStyle=1;align=center;verticalAlign=top;childLayout=stackLayout;horizontal=1;startSize=26;horizontalStack=0;resizeParent=1;resizeParentMax=0;resizeLast=0;collapsible=1;marginBottom=0;whiteSpace=wrap;html=1;" parent="1" vertex="1">
          <mxGeometry x="-563" y="38" width="160" height="46" as="geometry" />
        </mxCell>
        <mxCell id="u0vfC-JlX7i4nL_JvI1X-68" value="" style="line;strokeWidth=1;fillColor=none;align=left;verticalAlign=middle;spacingTop=-1;spacingLeft=3;spacingRight=3;rotatable=0;labelPosition=right;points=[];portConstraint=eastwest;strokeColor=inherit;" parent="u0vfC-JlX7i4nL_JvI1X-66" vertex="1">
          <mxGeometry y="26" width="160" height="20" as="geometry" />
        </mxCell>
        <mxCell id="u0vfC-JlX7i4nL_JvI1X-70" value="Fenetre_Chrono" style="swimlane;fontStyle=1;align=center;verticalAlign=top;childLayout=stackLayout;horizontal=1;startSize=26;horizontalStack=0;resizeParent=1;resizeParentMax=0;resizeLast=0;collapsible=1;marginBottom=0;whiteSpace=wrap;html=1;" parent="1" vertex="1">
          <mxGeometry x="-753" y="51" width="160" height="47" as="geometry" />
        </mxCell>
        <mxCell id="u0vfC-JlX7i4nL_JvI1X-72" value="" style="line;strokeWidth=1;fillColor=none;align=left;verticalAlign=middle;spacingTop=-1;spacingLeft=3;spacingRight=3;rotatable=0;labelPosition=right;points=[];portConstraint=eastwest;strokeColor=inherit;" parent="u0vfC-JlX7i4nL_JvI1X-70" vertex="1">
          <mxGeometry y="26" width="160" height="21" as="geometry" />
        </mxCell>
        <mxCell id="u0vfC-JlX7i4nL_JvI1X-74" value="FenetreProfil" style="swimlane;fontStyle=1;align=center;verticalAlign=top;childLayout=stackLayout;horizontal=1;startSize=26;horizontalStack=0;resizeParent=1;resizeParentMax=0;resizeLast=0;collapsible=1;marginBottom=0;whiteSpace=wrap;html=1;" parent="1" vertex="1">
          <mxGeometry x="-364" y="39" width="160" height="45" as="geometry" />
        </mxCell>
        <mxCell id="u0vfC-JlX7i4nL_JvI1X-77" value="" style="line;strokeWidth=1;fillColor=none;align=left;verticalAlign=middle;spacingTop=-1;spacingLeft=3;spacingRight=3;rotatable=0;labelPosition=right;points=[];portConstraint=eastwest;strokeColor=inherit;" parent="u0vfC-JlX7i4nL_JvI1X-74" vertex="1">
          <mxGeometry y="26" width="160" height="19" as="geometry" />
        </mxCell>
        <mxCell id="u0vfC-JlX7i4nL_JvI1X-78" value="FenetreInfos" style="swimlane;fontStyle=1;align=center;verticalAlign=top;childLayout=stackLayout;horizontal=1;startSize=26;horizontalStack=0;resizeParent=1;resizeParentMax=0;resizeLast=0;collapsible=1;marginBottom=0;whiteSpace=wrap;html=1;" parent="1" vertex="1">
          <mxGeometry x="-174" y="25" width="160" height="45" as="geometry" />
        </mxCell>
        <mxCell id="u0vfC-JlX7i4nL_JvI1X-81" value="" style="line;strokeWidth=1;fillColor=none;align=left;verticalAlign=middle;spacingTop=-1;spacingLeft=3;spacingRight=3;rotatable=0;labelPosition=right;points=[];portConstraint=eastwest;strokeColor=inherit;" parent="u0vfC-JlX7i4nL_JvI1X-78" vertex="1">
          <mxGeometry y="26" width="160" height="19" as="geometry" />
        </mxCell>
        <mxCell id="u0vfC-JlX7i4nL_JvI1X-99" value="Chrono" style="swimlane;fontStyle=1;align=center;verticalAlign=top;childLayout=stackLayout;horizontal=1;startSize=26;horizontalStack=0;resizeParent=1;resizeParentMax=0;resizeLast=0;collapsible=1;marginBottom=0;whiteSpace=wrap;html=1;" parent="1" vertex="1">
          <mxGeometry x="-129" y="861" width="160" height="110" as="geometry" />
        </mxCell>
        <mxCell id="u0vfC-JlX7i4nL_JvI1X-100" value="+ method(type): type" style="text;strokeColor=none;fillColor=none;align=left;verticalAlign=top;spacingLeft=4;spacingRight=4;overflow=hidden;rotatable=0;points=[[0,0.5],[1,0.5]];portConstraint=eastwest;whiteSpace=wrap;html=1;" parent="u0vfC-JlX7i4nL_JvI1X-99" vertex="1">
          <mxGeometry y="26" width="160" height="26" as="geometry" />
        </mxCell>
        <mxCell id="u0vfC-JlX7i4nL_JvI1X-101" value="+ field: type" style="text;strokeColor=none;fillColor=none;align=left;verticalAlign=top;spacingLeft=4;spacingRight=4;overflow=hidden;rotatable=0;points=[[0,0.5],[1,0.5]];portConstraint=eastwest;whiteSpace=wrap;html=1;" parent="u0vfC-JlX7i4nL_JvI1X-99" vertex="1">
          <mxGeometry y="52" width="160" height="20" as="geometry" />
        </mxCell>
        <mxCell id="u0vfC-JlX7i4nL_JvI1X-102" value="" style="line;strokeWidth=1;fillColor=none;align=left;verticalAlign=middle;spacingTop=-1;spacingLeft=3;spacingRight=3;rotatable=0;labelPosition=right;points=[];portConstraint=eastwest;strokeColor=inherit;" parent="u0vfC-JlX7i4nL_JvI1X-99" vertex="1">
          <mxGeometry y="72" width="160" height="38" as="geometry" />
        </mxCell>
        <mxCell id="IXkaGDdoHZNGZaUg_SKj-3" value="Extends" style="endArrow=block;endSize=16;endFill=0;html=1;rounded=0;entryX=0.5;entryY=1;entryDx=0;entryDy=0;exitX=0.5;exitY=0;exitDx=0;exitDy=0;" edge="1" parent="1" source="u0vfC-JlX7i4nL_JvI1X-51" target="u0vfC-JlX7i4nL_JvI1X-5">
          <mxGeometry width="160" relative="1" as="geometry">
            <mxPoint x="-191" y="392" as="sourcePoint" />
            <mxPoint x="-31" y="392" as="targetPoint" />
          </mxGeometry>
        </mxCell>
        <mxCell id="IXkaGDdoHZNGZaUg_SKj-4" value="Extends" style="endArrow=block;endSize=16;endFill=0;html=1;rounded=0;entryX=0.5;entryY=1;entryDx=0;entryDy=0;exitX=0.5;exitY=0;exitDx=0;exitDy=0;" edge="1" parent="1" source="u0vfC-JlX7i4nL_JvI1X-55" target="u0vfC-JlX7i4nL_JvI1X-17">
          <mxGeometry width="160" relative="1" as="geometry">
            <mxPoint x="335" y="283" as="sourcePoint" />
            <mxPoint x="340" y="183" as="targetPoint" />
          </mxGeometry>
        </mxCell>
        <mxCell id="IXkaGDdoHZNGZaUg_SKj-5" value="Extends" style="endArrow=block;endSize=16;endFill=0;html=1;rounded=0;entryX=0;entryY=1;entryDx=0;entryDy=0;exitX=0;exitY=0;exitDx=0;exitDy=0;" edge="1" parent="1" source="u0vfC-JlX7i4nL_JvI1X-43" target="u0vfC-JlX7i4nL_JvI1X-39">
          <mxGeometry width="160" relative="1" as="geometry">
            <mxPoint x="98" y="425" as="sourcePoint" />
            <mxPoint x="103" y="325" as="targetPoint" />
          </mxGeometry>
        </mxCell>
        <mxCell id="IXkaGDdoHZNGZaUg_SKj-6" value="Extends" style="endArrow=block;endSize=16;endFill=0;html=1;rounded=0;entryX=1;entryY=1;entryDx=0;entryDy=0;exitX=0.75;exitY=0;exitDx=0;exitDy=0;" edge="1" parent="1" source="u0vfC-JlX7i4nL_JvI1X-47" target="u0vfC-JlX7i4nL_JvI1X-39">
          <mxGeometry width="160" relative="1" as="geometry">
            <mxPoint x="433" y="390" as="sourcePoint" />
            <mxPoint x="519" y="348" as="targetPoint" />
          </mxGeometry>
        </mxCell>
        <mxCell id="IXkaGDdoHZNGZaUg_SKj-8" value="Use" style="endArrow=open;endSize=12;dashed=1;html=1;rounded=0;exitX=0;exitY=0.5;exitDx=0;exitDy=0;entryX=0;entryY=0;entryDx=0;entryDy=0;" edge="1" parent="1" source="u0vfC-JlX7i4nL_JvI1X-28" target="u0vfC-JlX7i4nL_JvI1X-99">
          <mxGeometry width="160" relative="1" as="geometry">
            <mxPoint x="-108" y="812" as="sourcePoint" />
            <mxPoint x="52" y="812" as="targetPoint" />
          </mxGeometry>
        </mxCell>
        <mxCell id="IXkaGDdoHZNGZaUg_SKj-13" value="" style="endArrow=none;html=1;rounded=0;exitX=1;exitY=0.5;exitDx=0;exitDy=0;entryX=0;entryY=0.5;entryDx=0;entryDy=0;" edge="1" parent="1" source="u0vfC-JlX7i4nL_JvI1X-83" target="u0vfC-JlX7i4nL_JvI1X-104">
          <mxGeometry relative="1" as="geometry">
            <mxPoint x="-219" y="555" as="sourcePoint" />
            <mxPoint x="-59" y="555" as="targetPoint" />
          </mxGeometry>
        </mxCell>
        <mxCell id="IXkaGDdoHZNGZaUg_SKj-14" value="1" style="resizable=0;html=1;whiteSpace=wrap;align=left;verticalAlign=bottom;" connectable="0" vertex="1" parent="IXkaGDdoHZNGZaUg_SKj-13">
          <mxGeometry x="-1" relative="1" as="geometry">
            <mxPoint x="2" y="-1" as="offset" />
          </mxGeometry>
        </mxCell>
        <mxCell id="IXkaGDdoHZNGZaUg_SKj-15" value="1" style="resizable=0;html=1;whiteSpace=wrap;align=right;verticalAlign=bottom;" connectable="0" vertex="1" parent="IXkaGDdoHZNGZaUg_SKj-13">
          <mxGeometry x="1" relative="1" as="geometry">
            <mxPoint x="-2" as="offset" />
          </mxGeometry>
        </mxCell>
        <mxCell id="IXkaGDdoHZNGZaUg_SKj-16" value="Use" style="endArrow=open;endSize=12;dashed=1;html=1;rounded=0;exitX=0.5;exitY=0;exitDx=0;exitDy=0;" edge="1" parent="1" source="u0vfC-JlX7i4nL_JvI1X-29" target="u0vfC-JlX7i4nL_JvI1X-4">
          <mxGeometry width="160" relative="1" as="geometry">
            <mxPoint x="-415" y="600" as="sourcePoint" />
            <mxPoint x="-255" y="600" as="targetPoint" />
          </mxGeometry>
        </mxCell>
        <mxCell id="IXkaGDdoHZNGZaUg_SKj-18" value="Use" style="endArrow=open;endSize=12;dashed=1;html=1;rounded=0;exitX=0;exitY=0.5;exitDx=0;exitDy=0;entryX=1;entryY=0.5;entryDx=0;entryDy=0;" edge="1" parent="1" source="u0vfC-JlX7i4nL_JvI1X-4" target="u0vfC-JlX7i4nL_JvI1X-60">
          <mxGeometry width="160" relative="1" as="geometry">
            <mxPoint x="-445" y="487" as="sourcePoint" />
            <mxPoint x="-345" y="369" as="targetPoint" />
          </mxGeometry>
        </mxCell>
        <mxCell id="IXkaGDdoHZNGZaUg_SKj-20" value="" style="endArrow=diamondThin;endFill=0;endSize=24;html=1;rounded=0;entryX=0;entryY=0.5;entryDx=0;entryDy=0;exitX=0;exitY=0;exitDx=0;exitDy=0;" edge="1" parent="1" source="u0vfC-JlX7i4nL_JvI1X-5" target="u0vfC-JlX7i4nL_JvI1X-12">
          <mxGeometry width="160" relative="1" as="geometry">
            <mxPoint x="100" y="138" as="sourcePoint" />
            <mxPoint x="179" y="60" as="targetPoint" />
            <Array as="points">
              <mxPoint x="104" y="85" />
            </Array>
          </mxGeometry>
        </mxCell>
        <mxCell id="IXkaGDdoHZNGZaUg_SKj-22" value="1&lt;br&gt;" style="edgeLabel;html=1;align=center;verticalAlign=middle;resizable=0;points=[];" vertex="1" connectable="0" parent="IXkaGDdoHZNGZaUg_SKj-20">
          <mxGeometry x="0.6012" relative="1" as="geometry">
            <mxPoint as="offset" />
          </mxGeometry>
        </mxCell>
        <mxCell id="IXkaGDdoHZNGZaUg_SKj-21" value="" style="endArrow=diamondThin;endFill=0;endSize=24;html=1;rounded=0;entryX=1;entryY=0.5;entryDx=0;entryDy=0;exitX=1;exitY=0;exitDx=0;exitDy=0;" edge="1" parent="1" source="u0vfC-JlX7i4nL_JvI1X-17" target="u0vfC-JlX7i4nL_JvI1X-12">
          <mxGeometry width="160" relative="1" as="geometry">
            <mxPoint x="404" y="137" as="sourcePoint" />
            <mxPoint x="523" y="83" as="targetPoint" />
            <Array as="points">
              <mxPoint x="441" y="85" />
            </Array>
          </mxGeometry>
        </mxCell>
        <mxCell id="IXkaGDdoHZNGZaUg_SKj-23" value="1&lt;br&gt;" style="edgeLabel;html=1;align=center;verticalAlign=middle;resizable=0;points=[];" vertex="1" connectable="0" parent="IXkaGDdoHZNGZaUg_SKj-21">
          <mxGeometry x="0.6125" relative="1" as="geometry">
            <mxPoint as="offset" />
          </mxGeometry>
        </mxCell>
        <mxCell id="IXkaGDdoHZNGZaUg_SKj-27" value="" style="endArrow=none;dashed=1;html=1;rounded=0;exitX=0.5;exitY=0;exitDx=0;exitDy=0;" edge="1" parent="1" source="u0vfC-JlX7i4nL_JvI1X-39">
          <mxGeometry width="50" height="50" relative="1" as="geometry">
            <mxPoint x="259" y="302" as="sourcePoint" />
            <mxPoint x="281" y="252" as="targetPoint" />
          </mxGeometry>
        </mxCell>
        <mxCell id="IXkaGDdoHZNGZaUg_SKj-28" value="Use" style="endArrow=open;endSize=12;dashed=1;html=1;rounded=0;entryX=0.25;entryY=1;entryDx=0;entryDy=0;" edge="1" parent="1" target="u0vfC-JlX7i4nL_JvI1X-17">
          <mxGeometry width="160" relative="1" as="geometry">
            <mxPoint x="281" y="255" as="sourcePoint" />
            <mxPoint x="454" y="272" as="targetPoint" />
          </mxGeometry>
        </mxCell>
        <mxCell id="IXkaGDdoHZNGZaUg_SKj-29" value="Use" style="endArrow=open;endSize=12;dashed=1;html=1;rounded=0;entryX=0.75;entryY=1;entryDx=0;entryDy=0;" edge="1" parent="1" target="u0vfC-JlX7i4nL_JvI1X-5">
          <mxGeometry width="160" relative="1" as="geometry">
            <mxPoint x="282" y="254" as="sourcePoint" />
            <mxPoint x="255" y="229" as="targetPoint" />
          </mxGeometry>
        </mxCell>
        <mxCell id="IXkaGDdoHZNGZaUg_SKj-39" value="Use" style="endArrow=open;endSize=12;dashed=1;html=1;rounded=0;exitX=0;exitY=0.25;exitDx=0;exitDy=0;entryX=1;entryY=0.5;entryDx=0;entryDy=0;" edge="1" parent="1" source="u0vfC-JlX7i4nL_JvI1X-1" target="u0vfC-JlX7i4nL_JvI1X-14">
          <mxGeometry width="160" relative="1" as="geometry">
            <mxPoint x="-372" y="289.5" as="sourcePoint" />
            <mxPoint x="-487" y="290.5" as="targetPoint" />
          </mxGeometry>
        </mxCell>
        <mxCell id="IXkaGDdoHZNGZaUg_SKj-40" value="Use" style="endArrow=open;endSize=12;dashed=1;html=1;rounded=0;exitX=0;exitY=0.5;exitDx=0;exitDy=0;entryX=0;entryY=0;entryDx=0;entryDy=0;" edge="1" parent="1" source="u0vfC-JlX7i4nL_JvI1X-60" target="u0vfC-JlX7i4nL_JvI1X-66">
          <mxGeometry width="160" relative="1" as="geometry">
            <mxPoint x="-654" y="581" as="sourcePoint" />
            <mxPoint x="-802" y="9" as="targetPoint" />
            <Array as="points">
              <mxPoint x="-790" y="439" />
              <mxPoint x="-790" y="38" />
            </Array>
          </mxGeometry>
        </mxCell>
        <mxCell id="IXkaGDdoHZNGZaUg_SKj-42" value="Use" style="endArrow=open;endSize=12;dashed=1;html=1;rounded=0;exitX=0;exitY=0.5;exitDx=0;exitDy=0;entryX=0;entryY=0;entryDx=0;entryDy=0;" edge="1" parent="1" source="u0vfC-JlX7i4nL_JvI1X-64" target="u0vfC-JlX7i4nL_JvI1X-74">
          <mxGeometry width="160" relative="1" as="geometry">
            <mxPoint x="-847" y="419" as="sourcePoint" />
            <mxPoint x="-690" y="18" as="targetPoint" />
            <Array as="points">
              <mxPoint x="-816" y="494" />
              <mxPoint x="-809" y="18" />
              <mxPoint x="-364" y="14" />
            </Array>
          </mxGeometry>
        </mxCell>
      </root>
    </mxGraphModel>
  </diagram>
</mxfile>
